<svg width="731" height="638" viewBox="0 0 731 638" fill="none" xmlns="http://www.w3.org/2000/svg">
<mask id="path-1-inside-1_29_14" fill="white">
<path d="M597.42 633.377C601.459 638.044 608.53 638.564 613.071 634.383C664.252 587.266 700.962 526.44 718.76 459.029C737.511 388.011 734.398 312.988 709.83 243.768C685.262 174.547 640.381 114.349 581.054 71.0425C521.728 27.7362 450.715 3.33651 377.3 1.03302C303.885 -1.27047 231.483 18.6294 169.558 58.1313C107.633 97.6332 59.0662 154.899 30.2069 222.444C1.3476 289.988 -6.46185 364.668 7.79941 436.722C21.3365 505.116 54.1617 568.124 102.288 618.357C106.557 622.814 113.648 622.738 117.972 618.333V618.333C122.296 613.929 122.216 606.865 117.955 602.4C73.034 555.324 42.3895 496.364 29.7258 432.382C16.3379 364.741 23.6691 294.634 50.7612 231.226C77.8532 167.818 123.446 114.058 181.578 76.9755C239.711 39.8926 307.68 21.2114 376.599 23.3738C445.519 25.5362 512.182 48.4417 567.876 89.096C623.57 129.75 665.702 186.262 688.766 251.244C711.83 316.226 714.751 386.654 697.149 453.323C680.499 516.385 646.219 573.308 598.435 617.475C593.903 621.665 593.38 628.71 597.42 633.377V633.377Z"/>
</mask>
<path d="M597.42 633.377C601.459 638.044 608.53 638.564 613.071 634.383C664.252 587.266 700.962 526.44 718.76 459.029C737.511 388.011 734.398 312.988 709.83 243.768C685.262 174.547 640.381 114.349 581.054 71.0425C521.728 27.7362 450.715 3.33651 377.3 1.03302C303.885 -1.27047 231.483 18.6294 169.558 58.1313C107.633 97.6332 59.0662 154.899 30.2069 222.444C1.3476 289.988 -6.46185 364.668 7.79941 436.722C21.3365 505.116 54.1617 568.124 102.288 618.357C106.557 622.814 113.648 622.738 117.972 618.333V618.333C122.296 613.929 122.216 606.865 117.955 602.4C73.034 555.324 42.3895 496.364 29.7258 432.382C16.3379 364.741 23.6691 294.634 50.7612 231.226C77.8532 167.818 123.446 114.058 181.578 76.9755C239.711 39.8926 307.68 21.2114 376.599 23.3738C445.519 25.5362 512.182 48.4417 567.876 89.096C623.57 129.75 665.702 186.262 688.766 251.244C711.83 316.226 714.751 386.654 697.149 453.323C680.499 516.385 646.219 573.308 598.435 617.475C593.903 621.665 593.38 628.71 597.42 633.377V633.377Z" fill="#F2E0D2" stroke="#E86975" stroke-width="10" mask="url(#path-1-inside-1_29_14)"/>
</svg>
