<svg width="1030" height="941" viewBox="0 0 1030 941" fill="none" xmlns="http://www.w3.org/2000/svg">
<mask id="path-1-inside-1_32_16" fill="white">
<path d="M746.566 693.523C750.606 698.19 757.677 698.71 762.218 694.53C813.398 647.413 850.109 586.587 867.907 519.175C886.657 448.158 883.545 373.135 858.977 303.914C834.409 234.693 789.528 174.495 730.201 131.189C670.874 87.8827 599.862 63.483 526.447 61.1795C453.031 58.876 380.629 78.7759 318.704 118.278C256.779 157.78 208.213 215.046 179.353 282.59C150.494 350.134 142.685 424.815 156.946 496.868C170.483 565.263 203.308 628.27 251.434 678.504C255.704 682.96 262.794 682.884 267.118 678.48V678.48C271.442 674.076 271.362 667.012 267.101 662.546C222.18 615.47 191.536 556.51 178.872 492.528C165.484 424.887 172.816 354.78 199.908 291.372C227 227.964 272.592 174.205 330.725 137.122C388.858 100.039 456.826 81.3579 525.746 83.5203C594.665 85.6827 661.329 108.588 717.023 149.243C772.716 189.897 814.849 246.409 837.912 311.39C860.976 376.372 863.898 446.801 846.296 513.469C829.646 576.532 795.365 633.455 747.582 677.622C743.049 681.811 742.526 688.856 746.566 693.523V693.523Z"/>
</mask>
<path d="M746.566 693.523C750.606 698.19 757.677 698.71 762.218 694.53C813.398 647.413 850.109 586.587 867.907 519.175C886.657 448.158 883.545 373.135 858.977 303.914C834.409 234.693 789.528 174.495 730.201 131.189C670.874 87.8827 599.862 63.483 526.447 61.1795C453.031 58.876 380.629 78.7759 318.704 118.278C256.779 157.78 208.213 215.046 179.353 282.59C150.494 350.134 142.685 424.815 156.946 496.868C170.483 565.263 203.308 628.27 251.434 678.504C255.704 682.96 262.794 682.884 267.118 678.48V678.48C271.442 674.076 271.362 667.012 267.101 662.546C222.18 615.47 191.536 556.51 178.872 492.528C165.484 424.887 172.816 354.78 199.908 291.372C227 227.964 272.592 174.205 330.725 137.122C388.858 100.039 456.826 81.3579 525.746 83.5203C594.665 85.6827 661.329 108.588 717.023 149.243C772.716 189.897 814.849 246.409 837.912 311.39C860.976 376.372 863.898 446.801 846.296 513.469C829.646 576.532 795.365 633.455 747.582 677.622C743.049 681.811 742.526 688.856 746.566 693.523V693.523Z" fill="#F2E0D2" stroke="#E86975" stroke-width="10" mask="url(#path-1-inside-1_32_16)"/>
<path d="M746.566 693.523C750.606 698.19 757.676 698.711 762.217 694.531C795.562 663.832 822.923 627.169 842.868 586.397C864.453 542.277 876.91 494.254 879.494 445.205C882.079 396.156 874.737 347.09 857.909 300.945C841.08 254.801 815.112 212.528 781.558 176.658C748.005 140.788 707.557 112.059 662.638 92.1915C617.718 72.3243 569.25 61.7276 520.138 61.0362C471.026 60.3447 422.279 69.5728 376.818 88.1675C334.808 105.351 296.401 130.206 263.548 161.43C259.074 165.682 259.123 172.772 263.51 177.114V177.114C267.897 181.456 274.961 181.404 279.443 177.161C310.174 148.07 346.054 124.9 385.28 108.856C427.957 91.3996 473.719 82.7366 519.823 83.3857C565.928 84.0348 611.428 93.9826 653.597 112.633C695.766 131.284 733.736 158.253 765.235 191.927C796.734 225.6 821.112 265.285 836.91 308.603C852.707 351.922 859.6 397.983 857.174 444.029C854.747 490.074 843.053 535.156 822.791 576.575C804.166 614.644 778.656 648.899 747.581 677.622C743.049 681.812 742.526 688.856 746.566 693.523V693.523Z" fill="#E86975"/>
</svg>
